<?xml version="1.0" encoding="UTF-8"?> <svg xmlns="http://www.w3.org/2000/svg" width="111" height="80" viewBox="0 0 111 80" fill="none"><g clip-path="url(#clip0)"><path d="M40.7 4.90006C41.1 4.10006 40.7 3.70006 40.7 2.40006C40.7 2.10006 40.5 1.80006 40.5 1.50006C40.4 1.00006 39.1 1.20006 38.7 1.00006C38.3 0.700059 38.8 -0.0999411 38.1 0.100059C36.8 0.400059 36.2 1.90006 35.5 2.90006C33.9 5.50006 32.2 8.10006 30.8 10.8001C22 26.5001 13.6 47.7001 6.5 67.8001V65.4001C5.9 58.2001 5.3 51.0001 4.7 43.9001C4.7 43.7001 4.7 43.5001 4.6 43.3001C4.4 42.9001 3.9 42.8001 3.5 42.9001C2.9 42.9001 2 44.6001 1.5 45.0001C0.9 45.5001 0.7 44.7001 0.4 45.3001C0 46.6001 0 48.0001 0 49.4001C0.1 59.2001 1.1 68.9001 2.6 78.5001C2.6 78.6001 2.6 78.8001 2.7 78.9001C2.8 79.1001 3.1 79.1001 3.3 79.1001C4.3 79.2001 5.4 79.2001 6.4 79.3001C6.6 79.3001 6.9 79.3001 7 79.2001C7.2 79.1001 7.3 78.8001 7.3 78.6001C9.3 72.2001 11.6 65.8001 13.7 59.4001C14 58.6001 14.2 57.8001 14.5 57.0001C20 40.4001 27.2 24.4001 37.2 10.1001C38.3 8.90006 40.1 6.40006 40.7 4.90006Z" fill="white"></path><path d="M32.3999 45.4C31.5999 44.7 30.6999 44.2 29.7999 44C28.7999 43.7 27.8999 43.8 26.8999 44.1C25.9999 44.4 25.1999 44.9 24.3999 45.6C22.9999 46.9 21.7999 48.4 20.8999 50.1C19.8999 51.8 19.1999 53.5 18.6999 55.3C18.1999 57.1 17.8999 58.8 17.7999 60.6C17.6999 62.3 17.8999 63.8 18.3999 65.2C19.2999 68 21.0999 69.6 23.5999 70C24.7999 70.3 25.9999 70.2 27.1999 69.9C28.7999 69.4 30.1999 68.3 31.3999 66.5C32.5999 64.8 33.4999 62.8 33.9999 60.5C34.5999 58.2 34.8999 55.9 34.9999 53.6C34.9999 51.3 34.7999 49.3 34.2999 47.7C33.7999 46.8 33.1999 46.1 32.3999 45.4ZM29.8999 55.5C29.7999 56.6 29.6999 57.6 29.4999 58.4C28.8999 60.6 28.1999 62.3 27.3999 63.5C26.5999 64.7 25.5999 65.5 24.3999 65.9C23.7999 65.8 23.2999 65.3 22.9999 64.4C22.6999 63.4 22.5999 62.2 22.5999 60.7C22.6999 59.2 22.8999 57.7 23.2999 56.3C23.6999 54.9 24.2999 53.4 25.1999 51.8C25.9999 50.2 26.8999 49.2 27.8999 48.9C28.1999 48.8 28.3999 48.8 28.5999 48.8C28.8999 48.9 29.1999 49.3 29.3999 50C29.5999 50.6 29.6999 51.5 29.7999 52.5C29.9999 53.4 29.9999 54.4 29.8999 55.5Z" fill="white"></path><path d="M37.1 52.2001C36.9 53.8001 36.7 55.0001 36.6 55.7001C36.5 56.4001 36.5001 57.1001 36.4001 57.8001C36.4001 58.5001 36.3 59.4001 36.3 60.6001C36.3 60.8001 36.3 60.9001 36.3 60.9001C36.4 61.1001 36.5 61.1001 36.6 61.2001C36.7 61.2001 37 61.2001 37.3 61.2001C37.6 61.2001 37.9 61.2001 38.1 61.3001C38.6 61.5001 39.2 61.5001 40.1 61.6001C41 61.6001 40.6 62.1001 41.3 61.9001C41.3 60.6001 41.3001 59.3001 41.4001 58.1001C41.8001 52.0001 42.7 45.8001 43.5 39.8001C43.9 36.9001 44.4001 34.5001 44.7001 32.4001C45.0001 30.5001 47.8001 16.2001 48.4001 12.8001C48.5001 12.5001 48.2 12.2001 47.8 12.3001C47.6 12.4001 47.3 12.6001 47 12.9001C46.7 13.2001 46.4001 13.4001 46.2001 13.5001C45.4001 13.4001 44.9001 13.4001 44.7001 13.5001C44.6001 13.5001 44.5001 13.6001 44.4001 13.7001C43.9001 15.5001 43.6001 17.3001 43.2001 19.1001C41.0001 29.8001 39.5001 36.1001 37.9001 46.9001C37.7001 48.7001 37.4 50.5001 37.1 52.2001Z" fill="white"></path><path d="M46.6001 33.2001C46.6001 33.3001 46.8001 33.5001 47.0001 33.7001C47.3001 33.9001 47.4001 34.1001 47.5001 34.2001C47.6001 34.5001 47.6001 34.8001 47.5001 35.3001C47.4001 35.8001 47.4001 36.0001 47.4001 36.1001C47.4001 36.2001 47.7001 36.2001 48.1001 36.1001C51.4001 34.7001 53.1001 33.9001 53.3001 33.9001C52.8001 36.5001 52.4001 38.6001 52.1001 40.4001C51.7001 42.1001 51.4001 43.8001 51.1001 45.4001C50.8001 47.0001 50.5001 48.6001 50.3001 50.0001C50.1001 51.4001 49.9001 53.0001 49.7001 54.8001C49.9001 55.1001 50.3001 55.1001 50.9001 54.9001C51.5001 54.7001 51.9001 54.7001 52.0001 54.8001C52.1001 54.9001 52.3001 55.0001 52.6001 55.4001C52.9001 55.7001 53.3001 56.0001 53.6001 56.2001C53.9001 56.4001 54.2001 56.4001 54.5001 56.3001C54.6001 56.3001 54.7001 56.2001 54.8001 56.1001C55.3001 52.7001 55.7001 49.7001 56.0001 47.2001C56.4001 44.7001 56.7001 42.3001 57.1001 40.1001C57.4001 37.9001 57.7001 36.2001 57.9001 34.9001C58.1001 33.6001 58.3001 32.7001 58.3001 32.2001C58.8001 31.9001 59.6001 31.5001 60.8001 31.0001C62.0001 30.4001 63.4001 29.9001 64.9001 29.3001C65.0001 29.1001 65.0001 28.8001 64.9001 28.6001C64.9001 28.5001 64.8001 28.3001 64.8001 28.2001C64.8001 28.1001 64.7001 28.0001 64.7001 27.9001C64.6001 27.7001 64.6001 27.5001 64.7001 27.3001C64.9001 27.1001 65.0001 26.8001 65.0001 26.5001C65.0001 26.2001 65.1001 25.9001 65.0001 25.7001C65.0001 25.5001 64.9001 25.3001 64.9001 25.2001C64.0001 25.5001 62.8001 26.0001 61.2001 26.6001C59.6001 27.2001 58.9001 27.5001 58.9001 27.5001C59.1001 26.5001 59.2001 25.4001 59.4001 24.1001C59.6001 22.8001 59.8001 21.6001 60.0001 20.4001C60.2001 19.2001 60.4001 18.3001 60.5001 17.7001C60.2001 17.5001 59.9001 17.4001 59.4001 17.4001C58.9001 17.4001 58.6001 18.6001 58.1001 18.8001C58.0001 18.9001 57.7001 17.8001 57.2001 18.1001C56.8001 18.3001 56.4001 18.6001 56.1001 18.9001C56.0001 19.4001 55.9001 20.2001 55.7001 21.2001C55.5001 22.2001 55.3001 23.1001 55.1001 23.9001C55.0001 24.3001 54.9001 25.0001 54.7001 26.0001C54.5001 27.0001 54.3001 27.7001 54.3001 28.1001C54.2001 28.5001 54.2001 28.8001 54.1001 29.1001C53.0001 29.6001 51.8001 30.2001 50.5001 30.7001C49.2001 31.2001 47.9001 31.8001 46.6001 32.5001C46.6001 32.6001 46.6001 32.9001 46.6001 33.2001Z" fill="white"></path><path d="M61.0999 40.6001C60.8999 42.8001 61.0999 44.7001 61.6999 46.3001C62.0999 47.6001 62.6999 48.5001 63.4999 49.1001C64.9999 50.6001 66.9999 51.0001 69.7999 50.1001C71.2999 49.6001 72.6999 48.8001 74.0999 47.7001C75.4999 46.6001 76.5999 45.3001 77.3999 44.0001C78.1999 42.6001 78.5999 41.3001 78.5999 40.0001C78.5999 39.9001 78.4999 39.8001 77.9999 39.8001C77.5999 39.8001 77.2999 39.8001 77.1999 39.2001C77.0999 38.9001 77.0999 38.7001 76.9999 38.5001C76.8999 38.2001 76.4999 38.3001 76.3999 38.5001C75.9999 40.1001 75.0999 41.5001 73.8999 42.7001C72.4999 44.1001 71.0999 45.0001 69.5999 45.5001C68.8999 45.7001 68.3999 45.8001 67.9999 45.8001C67.0999 45.7001 66.4999 45.3001 66.2999 44.6001C66.1999 44.3001 66.0999 43.7001 66.0999 42.7001C67.7999 42.0001 69.5999 41.0001 71.4999 39.7001C73.3999 38.4001 74.7999 37.1001 75.8999 36.0001C77.4999 34.4001 78.5999 32.7001 78.9999 31.1001C79.1999 30.0001 79.1999 29.0001 78.8999 28.0001C78.4999 26.7001 77.6999 25.8001 76.5999 25.1001C75.4999 24.4001 74.1999 24.3001 72.7999 24.6001C70.3999 25.4001 68.3999 26.6001 66.6999 28.4001C64.9999 30.1001 63.6999 32.1001 62.7999 34.3001C61.7999 36.2001 61.1999 38.4001 61.0999 40.6001ZM67.6999 33.5001C68.4999 32.3001 69.4999 31.2001 70.7999 30.1001C71.3999 29.6001 71.9999 29.3001 72.4999 29.2001C73.2999 28.9001 73.8999 28.9001 74.2999 29.2001C74.4999 29.4001 74.5999 29.5001 74.6999 29.7001C74.8999 30.2001 74.5999 30.8001 73.9999 31.7001C73.3999 32.5001 72.4999 33.5001 71.2999 34.4001C70.6999 34.8001 69.7999 35.4001 68.3999 36.3001C67.0999 37.1001 66.1999 37.7001 65.7999 37.9001C66.2999 36.2001 66.8999 34.7001 67.6999 33.5001Z" fill="white"></path><path d="M110.1 41.5001C110.1 41.4001 109.2 41.4001 109.2 41.3001C109.2 41.2001 109 41.0001 108.9 41.0001C100.1 41.7001 92.1 44.3001 84.2 48.0001C84.7 44.5001 85.1 42.1001 85.1 42.1001C86 42.6001 86.9 42.6001 88 42.3001C89.4 41.9001 90.8 40.9001 92.2 39.3001C93.6 37.7001 94.8 36.2001 95.6 34.7001C96.3 33.5001 96.8 32.1001 97.3 30.6001C97.8 29.1001 98.1 27.7001 98.3 26.3001C98.5 24.9001 98.6 23.6001 98.5 22.3001C98.5 21.0001 98.3 19.9001 97.9 18.9001C97.5 17.6001 96.8 16.7001 96 16.1001C95.1 15.6001 94 15.5001 92.7 15.9001C92.3 16.0001 91.9 16.2001 91.4 16.5001C89.4 17.6001 88.1 18.5001 87.6 19.2001C87.7 18.8001 87.8 18.5001 87.7 18.1001C87.7 18.0001 87.7 17.9001 87.7 17.7001C87.7 17.5001 87.4 17.3001 87.2 17.5001C87 17.7001 86.7 18.0001 86.5 18.1001C86.1 18.2001 86 17.6001 85.7 17.9001C85.6 18.0001 85 18.3001 84.9 18.4001C83.8 19.0001 83.5 19.1001 83.4 19.1001L79 50.6001C74.2 53.2001 69.3 55.7001 64.5 58.4001C59.7 61.1001 55 64.0001 50.5 67.1001C45.5 70.5001 40.7 74.2001 36.2 78.2001C36 78.4001 35.8 78.6001 35.7 78.9001C35.6 79.1001 35.6 79.3001 35.8 79.5001C35.9 79.6001 36 79.7001 36 79.8001C36.2 80.0001 36.5 79.9001 36.7 79.7001C45 73.3001 54.2 68.0001 63.5 63.2001C68.2 60.8001 73 58.5001 77.8 56.4001C77.9 56.3001 78.1 56.3001 78.2 56.2001L76.2 70.5001C76.2 70.6001 76.3 70.8001 76.4 70.8001C76.6 70.9001 76.8 70.7001 77.1 70.7001C77.4 70.7001 77.5 70.2001 77.8 70.2001C78.3 70.3001 79.1 71.1001 79.6 71.2001C79.8 71.2001 80.5 71.4001 80.5 71.0001C80.5 71.0001 81.9 61.9001 83.2 53.9001C86.3 52.5001 89.3 51.1001 92.4 49.7001C97.9 47.2001 103.5 45.1001 109.1 42.8001C109.4 42.7001 109.6 42.6001 109.8 42.3001C110 42.2001 110.1 41.7001 110.1 41.5001ZM87.7 25.4001C88 24.5001 88.6 23.6001 89.2 22.9001C89.9 22.1001 90.6 21.6001 91.5 21.3001C92.5 21.0001 93.1 21.3001 93.4 22.2001C93.8 23.6001 93.6 25.9001 92.8 29.2001C92.5 30.3001 92 31.4001 91.4 32.6001C90.8 33.8001 90.1 34.7001 89.3 35.6001C88.6 36.4001 87.8 36.9001 87.1 37.2001C86.6 37.4001 86.1 37.4001 85.6 37.2001C86.2 33.8001 86.9 29.9001 87.7 25.4001Z" fill="white"></path></g><defs><clipPath id="clip0"><rect width="110.1" height="80" fill="white"></rect></clipPath></defs></svg> 