<?xml version="1.0" encoding="UTF-8"?> <svg xmlns="http://www.w3.org/2000/svg" width="56" height="40" viewBox="0 0 56 40" fill="none"><g clip-path="url(#clip0)"><path d="M20.35 2.45003C20.55 2.05003 20.35 1.85003 20.35 1.20003C20.35 1.05003 20.25 0.900029 20.25 0.750029C20.2 0.500029 19.55 0.600029 19.35 0.500029C19.15 0.350029 19.4 -0.0499705 19.05 0.0500295C18.4 0.200029 18.1 0.950029 17.75 1.45003C16.95 2.75003 16.1 4.05003 15.4 5.40003C11 13.25 6.8 23.85 3.25 33.9V32.7C2.95 29.1 2.65 25.5 2.35 21.95C2.35 21.85 2.35 21.75 2.3 21.65C2.2 21.45 1.95 21.4 1.75 21.45C1.45 21.45 1 22.3 0.75 22.5C0.45 22.75 0.35 22.35 0.2 22.65C0 23.3 0 24 0 24.7C0.05 29.6 0.55 34.45 1.3 39.25C1.3 39.3 1.3 39.4 1.35 39.45C1.4 39.55 1.55 39.55 1.65 39.55C2.15 39.6 2.7 39.6 3.2 39.65C3.3 39.65 3.45 39.65 3.5 39.6C3.6 39.55 3.65 39.4 3.65 39.3C4.65 36.1 5.8 32.9 6.85 29.7C7 29.3 7.1 28.9 7.25 28.5C10 20.2 13.6 12.2 18.6 5.05003C19.15 4.45003 20.05 3.20003 20.35 2.45003Z" fill="white"></path><path d="M16.2 22.7C15.8 22.35 15.35 22.1 14.9 22C14.4 21.85 13.95 21.9 13.45 22.05C13 22.2 12.6 22.45 12.2 22.8C11.5 23.45 10.9 24.2 10.45 25.05C9.94995 25.9 9.59995 26.75 9.34995 27.65C9.09995 28.55 8.94995 29.4 8.89995 30.3C8.84995 31.15 8.94995 31.9 9.19995 32.6C9.64995 34 10.55 34.8 11.8 35C12.4 35.15 13 35.1 13.6 34.95C14.4 34.7 15.1 34.15 15.7 33.25C16.3 32.4 16.75 31.4 17 30.25C17.3 29.1 17.45 27.95 17.5 26.8C17.5 25.65 17.3999 24.65 17.1499 23.85C16.9 23.4 16.6 23.05 16.2 22.7ZM14.95 27.75C14.9 28.3 14.85 28.8 14.75 29.2C14.45 30.3 14.1 31.15 13.7 31.75C13.3 32.35 12.8 32.75 12.2 32.95C11.9 32.9 11.65 32.65 11.5 32.2C11.35 31.7 11.3 31.1 11.3 30.35C11.35 29.6 11.45 28.85 11.65 28.15C11.85 27.45 12.15 26.7 12.6 25.9C13 25.1 13.45 24.6 13.95 24.45C14.1 24.4 14.2 24.4 14.3 24.4C14.45 24.45 14.6 24.65 14.7 25C14.8 25.3 14.85 25.75 14.9 26.25C15 26.7 15 27.2 14.95 27.75Z" fill="white"></path><path d="M18.5499 26.0999C18.4499 26.8999 18.3499 27.4999 18.2999 27.8499C18.2499 28.1999 18.2499 28.5499 18.1999 28.8999C18.1999 29.2499 18.1499 29.6999 18.1499 30.2999C18.1499 30.3999 18.1499 30.4499 18.1499 30.4499C18.1999 30.5499 18.2499 30.5499 18.2999 30.5999C18.3499 30.5999 18.4999 30.5999 18.6499 30.5999C18.7999 30.5999 18.9499 30.5999 19.0499 30.6499C19.2999 30.7499 19.5999 30.7499 20.0499 30.7999C20.4999 30.7999 20.2999 31.0499 20.6499 30.9499C20.6499 30.2999 20.6499 29.6499 20.6999 29.0499C20.8999 25.9999 21.3499 22.8999 21.7499 19.8999C21.9499 18.4499 22.1999 17.2499 22.3499 16.1999C22.4999 15.2499 23.8999 8.09994 24.1999 6.39994C24.2499 6.24994 24.0999 6.09994 23.8999 6.14994C23.7999 6.19994 23.6499 6.29994 23.4999 6.44994C23.3499 6.59994 23.1999 6.69994 23.0999 6.74994C22.6999 6.69994 22.4499 6.69994 22.3499 6.74994C22.2999 6.74994 22.2499 6.79994 22.1999 6.84994C21.9499 7.74994 21.7999 8.64994 21.5999 9.54994C20.4999 14.8999 19.7499 18.0499 18.9499 23.4499C18.8499 24.3499 18.6999 25.2499 18.5499 26.0999Z" fill="white"></path><path d="M23.3 16.6C23.3 16.65 23.4 16.75 23.5 16.85C23.65 16.95 23.7 17.05 23.75 17.1C23.8 17.25 23.8 17.4 23.75 17.65C23.7 17.9 23.7001 18 23.7001 18.05C23.7001 18.1 23.85 18.1 24.05 18.05C25.7 17.35 26.55 16.95 26.65 16.95C26.4 18.25 26.2 19.3 26.05 20.2C25.85 21.05 25.7 21.9 25.55 22.7C25.4 23.5 25.25 24.3 25.15 25C25.05 25.7 24.95 26.5 24.85 27.4C24.95 27.55 25.1501 27.55 25.45 27.45C25.75 27.35 25.95 27.35 26 27.4C26.05 27.45 26.15 27.5 26.3 27.7C26.45 27.85 26.65 28 26.8 28.1C26.95 28.2 27.1 28.2 27.25 28.15C27.3 28.15 27.35 28.0999 27.4 28.0499C27.65 26.3499 27.85 24.85 28 23.6C28.2 22.35 28.35 21.15 28.55 20.05C28.7 18.95 28.85 18.1 28.95 17.45C29.05 16.8 29.15 16.35 29.15 16.1C29.4 15.95 29.8 15.75 30.4 15.5C31 15.2 31.7 14.95 32.45 14.65C32.5 14.55 32.5 14.4 32.45 14.3C32.45 14.25 32.4 14.15 32.4 14.1C32.4 14.05 32.35 14 32.35 13.95C32.3 13.85 32.3 13.75 32.35 13.65C32.45 13.55 32.5 13.4 32.5 13.25C32.5 13.1 32.55 12.95 32.5 12.85C32.5 12.75 32.45 12.65 32.45 12.6C32 12.75 31.4 13 30.6 13.3C29.8 13.6 29.45 13.75 29.45 13.75C29.55 13.25 29.6 12.7 29.7 12.05C29.8 11.4 29.9 10.8 30 10.2C30.1 9.59995 30.2 9.14995 30.25 8.84995C30.1 8.74995 29.95 8.69995 29.7 8.69995C29.45 8.69995 29.3 9.29995 29.05 9.39995C29 9.44995 28.85 8.89995 28.6 9.04995C28.4 9.14995 28.2 9.29995 28.05 9.44995C28 9.69995 27.95 10.1 27.85 10.6C27.75 11.1 27.65 11.55 27.55 11.95C27.5 12.15 27.45 12.5 27.35 13C27.25 13.5 27.15 13.85 27.15 14.05C27.1 14.25 27.1 14.4 27.05 14.55C26.5 14.8 25.9 15.1 25.25 15.35C24.6 15.6 23.95 15.9 23.3 16.25C23.3 16.3 23.3 16.45 23.3 16.6Z" fill="white"></path><path d="M30.55 20.2999C30.45 21.3999 30.55 22.3499 30.85 23.1499C31.05 23.7999 31.35 24.2499 31.75 24.5499C32.5 25.2999 33.5 25.4999 34.9 25.0499C35.65 24.7999 36.3499 24.3999 37.0499 23.8499C37.7499 23.2999 38.2999 22.6499 38.6999 21.9999C39.0999 21.2999 39.2999 20.6499 39.2999 19.9999C39.2999 19.9499 39.2499 19.8999 38.9999 19.8999C38.7999 19.8999 38.6499 19.8999 38.5999 19.5999C38.5499 19.4499 38.5499 19.3499 38.4999 19.2499C38.4499 19.0999 38.25 19.1499 38.2 19.2499C38 20.0499 37.55 20.7499 36.95 21.3499C36.25 22.0499 35.5499 22.4999 34.7999 22.7499C34.4499 22.8499 34.2 22.8999 34 22.8999C33.55 22.8499 33.25 22.6499 33.15 22.2999C33.1 22.1499 33.05 21.8499 33.05 21.3499C33.9 20.9999 34.8 20.4999 35.75 19.8499C36.6999 19.1999 37.4 18.5499 37.95 17.9999C38.75 17.1999 39.2999 16.3499 39.4999 15.5499C39.5999 14.9999 39.5999 14.4999 39.4499 13.9999C39.2499 13.3499 38.8499 12.8999 38.2999 12.5499C37.7499 12.1999 37.1 12.1499 36.4 12.2999C35.2 12.6999 34.1999 13.2999 33.3499 14.1999C32.4999 15.0499 31.85 16.0499 31.4 17.1499C30.9 18.0999 30.6 19.1999 30.55 20.2999ZM33.8499 16.7499C34.2499 16.1499 34.75 15.5999 35.4 15.0499C35.7 14.7999 36 14.6499 36.25 14.5999C36.65 14.4499 36.95 14.4499 37.15 14.5999C37.25 14.6999 37.2999 14.7499 37.3499 14.8499C37.4499 15.0999 37.2999 15.3999 36.9999 15.8499C36.6999 16.2499 36.25 16.7499 35.65 17.1999C35.35 17.3999 34.9 17.6999 34.2 18.1499C33.55 18.5499 33.1 18.8499 32.9 18.9499C33.15 18.0999 33.4499 17.3499 33.8499 16.7499Z" fill="white"></path><path d="M55.05 20.7501C55.05 20.7001 54.6 20.7001 54.6 20.6501C54.6 20.6001 54.5 20.5001 54.45 20.5001C50.05 20.8501 46.05 22.1501 42.1 24.0001C42.35 22.2501 42.55 21.0501 42.55 21.0501C43 21.3001 43.45 21.3001 44 21.1501C44.7 20.9501 45.4 20.4501 46.1 19.6501C46.8 18.8501 47.4 18.1001 47.8 17.3501C48.15 16.7501 48.4 16.0501 48.65 15.3001C48.9 14.5501 49.05 13.8501 49.15 13.1501C49.25 12.4501 49.3 11.8001 49.25 11.1501C49.25 10.5001 49.15 9.95007 48.95 9.45007C48.75 8.80007 48.4 8.35007 48 8.05007C47.55 7.80007 47 7.75007 46.35 7.95007C46.15 8.00007 45.95 8.10007 45.7 8.25007C44.7 8.80007 44.05 9.25007 43.8 9.60007C43.85 9.40007 43.9 9.25007 43.85 9.05007C43.85 9.00007 43.85 8.95007 43.85 8.85007C43.85 8.75007 43.7 8.65007 43.6 8.75007C43.5 8.85007 43.35 9.00007 43.25 9.05007C43.05 9.10007 43 8.80007 42.85 8.95007C42.8 9.00007 42.5 9.15007 42.45 9.20007C41.9 9.50007 41.75 9.55007 41.7 9.55007L39.5 25.3001C37.1 26.6001 34.65 27.8501 32.25 29.2001C29.85 30.5501 27.5 32.0001 25.25 33.5501C22.75 35.2501 20.35 37.1001 18.1 39.1001C18 39.2001 17.9 39.3001 17.85 39.4501C17.8 39.5501 17.8 39.6501 17.9 39.7501C17.95 39.8001 18 39.8501 18 39.9001C18.1 40.0001 18.25 39.9501 18.35 39.8501C22.5 36.6501 27.1 34.0001 31.75 31.6001C34.1 30.4001 36.5 29.2501 38.9 28.2001C38.95 28.1501 39.05 28.1501 39.1 28.1001L38.1 35.2501C38.1 35.3001 38.15 35.4001 38.2 35.4001C38.3 35.4501 38.4 35.3501 38.55 35.3501C38.7 35.3501 38.75 35.1001 38.9 35.1001C39.15 35.1501 39.55 35.5501 39.8 35.6001C39.9 35.6001 40.25 35.7001 40.25 35.5001C40.25 35.5001 40.95 30.9501 41.6 26.9501C43.15 26.2501 44.65 25.5501 46.2 24.8501C48.95 23.6001 51.75 22.5501 54.55 21.4001C54.7 21.3501 54.8 21.3001 54.9 21.1501C55 21.1001 55.05 20.8501 55.05 20.7501ZM43.85 12.7001C44 12.2501 44.3 11.8001 44.6 11.4501C44.95 11.0501 45.3 10.8001 45.75 10.6501C46.25 10.5001 46.55 10.6501 46.7 11.1001C46.9 11.8001 46.8 12.9501 46.4 14.6001C46.25 15.1501 46 15.7001 45.7 16.3001C45.4 16.9001 45.05 17.3501 44.65 17.8001C44.3 18.2001 43.9 18.4501 43.55 18.6001C43.3 18.7001 43.05 18.7001 42.8 18.6001C43.1 16.9001 43.45 14.9501 43.85 12.7001Z" fill="white"></path></g><defs><clipPath id="clip0"><rect width="55.05" height="40" fill="white"></rect></clipPath></defs></svg> 